<svg width="100" height="100" viewBox="0 0 100 100" fill="none" xmlns="http://www.w3.org/2000/svg">
<path d="M50 0C22.4308 0 0 22.4288 0 50C0 77.5712 22.4308 100 50 100C77.5692 100 100 77.5712 100 50C100 22.4288 77.5692 0 50 0ZM50 96.1538C24.5519 96.1538 3.84615 75.4481 3.84615 50C3.84615 24.5519 24.5519 3.84615 50 3.84615C75.4481 3.84615 96.1538 24.5519 96.1538 50C96.1538 75.4481 75.4481 96.1538 50 96.1538Z" fill="#B4BDC1"/>
<path d="M68.6676 31.3325C67.9157 30.5806 66.7003 30.5806 65.9484 31.3325L50.0003 47.2806L34.0522 31.3325C33.3003 30.5806 32.0849 30.5806 31.333 31.3325C30.5811 32.0844 30.5811 33.2998 31.333 34.0517L47.2811 49.9998L31.333 65.9479C30.5811 66.6998 30.5811 67.9152 31.333 68.6671C31.708 69.0421 32.2003 69.2306 32.6926 69.2306C33.1849 69.2306 33.6772 69.0421 34.0522 68.6671L50.0003 52.719L65.9484 68.6671C66.3234 69.0421 66.8157 69.2306 67.308 69.2306C67.8003 69.2306 68.2926 69.0421 68.6676 68.6671C69.4195 67.9152 69.4195 66.6998 68.6676 65.9479L52.7195 49.9998L68.6676 34.0517C69.4195 33.2998 69.4195 32.0844 68.6676 31.3325Z" fill="#B4BDC1"/>
</svg>
