<svg width="100" height="100" viewBox="0 0 100 100" fill="none" xmlns="http://www.w3.org/2000/svg">
<path d="M50 0C22.4308 0 0 22.4288 0 50C0 77.5712 22.4308 100 50 100C77.5692 100 100 77.5712 100 50C100 22.4288 77.5692 0 50 0ZM50 96.1538C24.5519 96.1538 3.84615 75.4481 3.84615 50C3.84615 24.5519 24.5519 3.84615 50 3.84615C75.4481 3.84615 96.1538 24.5519 96.1538 50C96.1538 75.4481 75.4481 96.1538 50 96.1538Z" fill="#B4BDC1"/>
<path d="M73.5616 29.4918L44.0058 62.7418L26.2 48.4976C25.3731 47.8341 24.1596 47.9706 23.4981 48.7976C22.8346 49.6283 22.9693 50.8379 23.7981 51.5014L43.0289 66.886C43.3827 67.1687 43.8077 67.3072 44.2308 67.3072C44.7616 67.3072 45.2904 67.088 45.6693 66.661L76.4385 32.0456C77.1443 31.2533 77.0731 30.036 76.2789 29.3322C75.4827 28.6245 74.2693 28.6956 73.5616 29.4918Z" fill="#B4BDC1"/>
</svg>
