
<svg width="76" height="100" viewBox="0 0 76 100" fill="none" xmlns="http://www.w3.org/2000/svg">
<path d="M65.5171 64.1379V25.8622V24.1381L44.8274 0H43.1034H6.89655C3.10336 0 0 3.10336 0 6.89655V86.2069C0 89.9999 3.10336 93.1034 6.89655 93.1034H42.4137C45.862 97.2414 51.0343 100 56.8965 100C67.2413 100 75.8621 91.3794 75.8621 81.0344C75.8621 73.7931 71.724 67.2415 65.5171 64.1379ZM44.8274 5.1725L61.0344 24.1381H48.2757C46.5516 24.1381 44.8274 22.4141 44.8274 20.6898V5.1725ZM6.89655 89.6552C5.1725 89.6552 3.44828 88.2759 3.44828 86.2069V6.89655C3.44828 5.1725 4.82759 3.44828 6.89655 3.44828H41.3793V20.6897C41.3793 24.4828 44.4828 27.5862 48.2759 27.5862H62.069V62.7586C60.3449 62.4137 58.6207 62.069 56.8965 62.069C46.5516 62.069 37.9309 70.6896 37.9309 81.0346C37.9309 84.1381 38.6205 86.8967 39.9998 89.6552H6.89655ZM56.8965 96.5517C48.2759 96.5517 41.3793 89.6552 41.3793 81.0346C41.3793 72.414 48.2759 65.5174 56.8965 65.5174C65.5171 65.5174 72.4136 72.414 72.4136 81.0346C72.4136 89.6552 65.5171 96.5517 56.8965 96.5517Z" fill="#B4BDC1"/>
<path d="M65.8621 74.8271L55.1725 85.5167L49.6553 79.9995L46.8965 82.4134L55.1725 90.3443L68.6207 77.2409L65.8621 74.8271Z" fill="#B4BDC1"/>
</svg>
