<svg width="100" height="100" viewBox="0 0 100 100" fill="none" xmlns="http://www.w3.org/2000/svg">
<path d="M50 0C22.43 0 0 22.43 0 50C0 77.57 22.43 100 50 100C77.57 100 100 77.57 100 50C100 22.43 77.57 0 50 0ZM50 96.6667C24.2683 96.6667 3.33333 75.7317 3.33333 50C3.33333 24.2683 24.2683 3.33333 50 3.33333C75.7317 3.33333 96.6667 24.2683 96.6667 50C96.6667 75.7317 75.7317 96.6667 50 96.6667Z" fill="#B4BDC1"/>
<path d="M49.9998 10C49.0798 10 48.3332 10.745 48.3332 11.6667V50H23.3332C22.4132 50 21.6665 50.745 21.6665 51.6667C21.6665 52.5883 22.4132 53.3333 23.3332 53.3333H49.9998C50.9198 53.3333 51.6665 52.5883 51.6665 51.6667V11.6667C51.6665 10.745 50.9198 10 49.9998 10Z" fill="#B4BDC1"/>
</svg>
