<svg width="24" height="24" viewBox="0 0 24 24" fill="none" xmlns="http://www.w3.org/2000/svg">
<g opacity="0.4">
<circle cx="12" cy="12" r="12" fill="#B4BDC1"/>
<path d="M11.416 14.746C11.3227 14.746 11.248 14.718 11.192 14.662C11.136 14.606 11.108 14.5313 11.108 14.438V13.864C11.1267 13.3693 11.2527 12.94 11.486 12.576C11.7287 12.212 12.0693 11.806 12.508 11.358C12.844 11.0127 13.0913 10.728 13.25 10.504C13.418 10.28 13.516 10.0373 13.544 9.776C13.5533 9.73867 13.558 9.678 13.558 9.594C13.558 9.16467 13.376 8.824 13.012 8.572C12.648 8.32 12.2233 8.194 11.738 8.194C11.2153 8.194 10.7767 8.334 10.422 8.614C10.0767 8.88467 9.85267 9.314 9.75 9.902C9.71267 10.1073 9.59133 10.21 9.386 10.21H8.77C8.686 10.21 8.61133 10.182 8.546 10.126C8.49 10.07 8.462 9.99533 8.462 9.902C8.48067 9.38867 8.62533 8.91733 8.896 8.488C9.176 8.04933 9.56333 7.704 10.058 7.452C10.562 7.19067 11.136 7.06 11.78 7.06C12.4613 7.06 13.0353 7.17667 13.502 7.41C13.9687 7.64333 14.314 7.95133 14.538 8.334C14.762 8.70733 14.874 9.104 14.874 9.524C14.874 10 14.7667 10.4107 14.552 10.756C14.3373 11.1013 14.0153 11.5027 13.586 11.96C13.2313 12.3427 12.9653 12.6693 12.788 12.94C12.6107 13.2013 12.508 13.4953 12.48 13.822C12.4613 14.0833 12.452 14.2793 12.452 14.41C12.4053 14.634 12.2887 14.746 12.102 14.746H11.416ZM11.29 17C11.1967 17 11.1173 16.972 11.052 16.916C10.996 16.8507 10.968 16.7713 10.968 16.678V15.866C10.968 15.7727 10.996 15.6933 11.052 15.628C11.1173 15.5627 11.1967 15.53 11.29 15.53H12.158C12.2513 15.53 12.3307 15.5627 12.396 15.628C12.4613 15.6933 12.494 15.7727 12.494 15.866V16.678C12.494 16.7713 12.4613 16.8507 12.396 16.916C12.3307 16.972 12.2513 17 12.158 17H11.29Z" fill="#192229"/>
</g>
</svg>
