<svg width="16" height="16" viewBox="0 0 16 16" fill="none" xmlns="http://www.w3.org/2000/svg">
<circle cx="8" cy="8" r="8" fill="#B4BDC1"/>
<path d="M7.684 10.229C7.61067 10.229 7.552 10.207 7.508 10.163C7.464 10.119 7.442 10.0603 7.442 9.987V9.536C7.45667 9.14733 7.55567 8.81 7.739 8.524C7.92967 8.238 8.19733 7.919 8.542 7.567C8.806 7.29567 9.00033 7.072 9.125 6.896C9.257 6.72 9.334 6.52933 9.356 6.324C9.36333 6.29467 9.367 6.247 9.367 6.181C9.367 5.84367 9.224 5.576 8.938 5.378C8.652 5.18 8.31833 5.081 7.937 5.081C7.52633 5.081 7.18167 5.191 6.903 5.411C6.63167 5.62367 6.45567 5.961 6.375 6.423C6.34567 6.58433 6.25033 6.665 6.089 6.665H5.605C5.539 6.665 5.48033 6.643 5.429 6.599C5.385 6.555 5.363 6.49633 5.363 6.423C5.37767 6.01967 5.49133 5.64933 5.704 5.312C5.924 4.96733 6.22833 4.696 6.617 4.498C7.013 4.29267 7.464 4.19 7.97 4.19C8.50533 4.19 8.95633 4.28167 9.323 4.465C9.68967 4.64833 9.961 4.89033 10.137 5.191C10.313 5.48433 10.401 5.796 10.401 6.126C10.401 6.5 10.3167 6.82267 10.148 7.094C9.97933 7.36533 9.72633 7.68067 9.389 8.04C9.11033 8.34067 8.90133 8.59733 8.762 8.81C8.62267 9.01533 8.542 9.24633 8.52 9.503C8.50533 9.70833 8.498 9.86233 8.498 9.965C8.46133 10.141 8.36967 10.229 8.223 10.229H7.684ZM7.585 12C7.51167 12 7.44933 11.978 7.398 11.934C7.354 11.8827 7.332 11.8203 7.332 11.747V11.109C7.332 11.0357 7.354 10.9733 7.398 10.922C7.44933 10.8707 7.51167 10.845 7.585 10.845H8.267C8.34033 10.845 8.40267 10.8707 8.454 10.922C8.50533 10.9733 8.531 11.0357 8.531 11.109V11.747C8.531 11.8203 8.50533 11.8827 8.454 11.934C8.40267 11.978 8.34033 12 8.267 12H7.585Z" fill="#192229"/>
</svg>
