<svg width="18" height="14" viewBox="0 0 18 14" fill="none" xmlns="http://www.w3.org/2000/svg">
<path d="M1.74974 6.56373C1.74974 7.9204 2.33508 9.1622 3.30882 10.1387C2.96418 11.5145 1.82359 12.7426 1.80991 12.759C1.74974 12.8219 1.73333 12.9149 1.76888 12.997C1.80444 13.0763 1.88103 13.1283 1.96856 13.1283C3.78201 13.1283 5.14142 12.2585 5.81428 11.7224C6.7087 12.0588 7.70159 12.253 8.75191 12.253C9.50136 12.253 10.2207 12.1545 10.8963 11.9795L1.99317 5.09765C1.84 5.56538 1.74974 6.05498 1.74974 6.56373ZM17.335 12.5293L14.2059 10.1113C15.1687 9.13758 15.7541 7.90946 15.7541 6.56373C15.7541 3.42096 12.6195 0.874466 8.75191 0.874466C6.97128 0.874466 5.35476 1.42425 4.11844 2.31593L1.24372 0.0921921C1.05226 -0.05551 0.778733 -0.0226873 0.628296 0.168778L0.0921921 0.858055C-0.05551 1.04952 -0.0226873 1.32304 0.168778 1.47074L16.2628 13.9078C16.4543 14.0555 16.7278 14.0227 16.8783 13.8312L17.4144 13.1392C17.5621 12.9532 17.5265 12.677 17.335 12.5293Z" fill="#6A7B83"/>
</svg>
