<svg width="36" height="36" viewBox="0 0 36 36" fill="none" xmlns="http://www.w3.org/2000/svg">
<circle cx="18" cy="18" r="18" fill="#FADB67"/>
<path d="M14.0265 17.624C12.9865 17.624 12.1625 17.352 11.5545 16.808C10.9625 16.248 10.6425 15.48 10.5945 14.504C10.5785 14.232 10.5705 13.88 10.5705 13.448C10.5705 12.984 10.5785 12.608 10.5945 12.32C10.6425 11.328 10.9545 10.544 11.5305 9.968C12.1065 9.376 12.9385 9.08 14.0265 9.08C15.1145 9.08 15.9465 9.376 16.5225 9.968C17.1145 10.544 17.4345 11.328 17.4825 12.32C17.5145 12.896 17.5305 13.272 17.5305 13.448C17.5305 13.608 17.5145 13.96 17.4825 14.504C17.4345 15.48 17.1065 16.248 16.4985 16.808C15.8905 17.352 15.0665 17.624 14.0265 17.624ZM12.0105 26C11.8665 26 11.7465 25.96 11.6505 25.88C11.5545 25.784 11.5065 25.664 11.5065 25.52C11.5065 25.424 11.5385 25.336 11.6025 25.256L23.4585 9.656C23.5865 9.48 23.6985 9.36 23.7945 9.296C23.9065 9.232 24.0585 9.2 24.2505 9.2H25.0185C25.1625 9.2 25.2745 9.248 25.3545 9.344C25.4505 9.424 25.4985 9.536 25.4985 9.68C25.4985 9.776 25.4665 9.864 25.4025 9.944L13.5705 25.544C13.4425 25.704 13.3225 25.824 13.2105 25.904C13.1145 25.968 12.9705 26 12.7785 26H12.0105ZM14.0265 16.16C14.6025 16.16 15.0265 15.992 15.2985 15.656C15.5705 15.32 15.7305 14.904 15.7785 14.408C15.8105 13.832 15.8265 13.496 15.8265 13.4C15.8265 13.256 15.8105 12.928 15.7785 12.416C15.7465 11.92 15.5865 11.504 15.2985 11.168C15.0265 10.816 14.6025 10.64 14.0265 10.64C13.4505 10.64 13.0265 10.816 12.7545 11.168C12.4825 11.504 12.3305 11.92 12.2985 12.416C12.2825 12.672 12.2745 13 12.2745 13.4C12.2745 13.784 12.2825 14.12 12.2985 14.408C12.3465 14.888 12.4985 15.304 12.7545 15.656C13.0265 15.992 13.4505 16.16 14.0265 16.16ZM22.9545 26.144C21.9145 26.144 21.0905 25.848 20.4825 25.256C19.8905 24.664 19.5705 23.88 19.5225 22.904C19.4905 22.424 19.4745 22.104 19.4745 21.944C19.4745 21.784 19.4905 21.384 19.5225 20.744C19.5705 19.752 19.8825 18.968 20.4585 18.392C21.0345 17.8 21.8665 17.504 22.9545 17.504C24.0425 17.504 24.8745 17.8 25.4505 18.392C26.0425 18.968 26.3625 19.752 26.4105 20.744C26.4425 21.32 26.4585 21.688 26.4585 21.848C26.4585 22.008 26.4425 22.36 26.4105 22.904C26.3625 23.88 26.0345 24.664 25.4265 25.256C24.8185 25.848 23.9945 26.144 22.9545 26.144ZM22.9545 24.584C23.5305 24.584 23.9545 24.416 24.2265 24.08C24.4985 23.744 24.6585 23.328 24.7065 22.832C24.7385 22.256 24.7545 21.912 24.7545 21.8C24.7545 21.672 24.7385 21.352 24.7065 20.84C24.6745 20.344 24.5145 19.928 24.2265 19.592C23.9545 19.24 23.5305 19.064 22.9545 19.064C22.3785 19.064 21.9545 19.24 21.6825 19.592C21.4105 19.928 21.2585 20.344 21.2265 20.84C21.2105 21.096 21.2025 21.416 21.2025 21.8C21.2025 22.2 21.2105 22.544 21.2265 22.832C21.2585 23.312 21.4105 23.728 21.6825 24.08C21.9545 24.416 22.3785 24.584 22.9545 24.584Z" fill="#192229"/>
</svg>
