<svg width="18" height="14" viewBox="0 0 18 14" fill="none" xmlns="http://www.w3.org/2000/svg">
<path d="M15.7947 11.0688C16.6111 10.2219 17.1009 9.15938 17.1009 8C17.1009 5.5 14.8298 3.43438 11.87 3.06563C10.9348 1.26563 8.73796 0 6.17593 0C2.76484 0 0.000932371 2.2375 0.000932371 5C0.000932371 6.15625 0.490776 7.21875 1.30718 8.06875C0.852964 9.02813 0.199839 9.77188 0.187964 9.78438C0.000932377 9.99375 -0.0525051 10.3 0.0573386 10.5656C0.164214 10.8313 0.413589 11.0031 0.686714 11.0031C2.27499 11.0031 3.55749 10.3719 4.40359 9.79062C4.67671 9.85625 4.95874 9.90625 5.24671 9.94375C6.1789 11.7375 8.36687 13 10.9259 13C11.5434 13 12.1372 12.925 12.7012 12.7875C13.5473 13.3656 14.8269 14 16.4181 14C16.6912 14 16.9377 13.8281 17.0475 13.5625C17.1544 13.2969 17.1039 12.9906 16.9169 12.7812C16.905 12.7719 16.2489 12.0281 15.7947 11.0688ZM4.13343 8.18437L3.62578 8.53125C3.20718 8.81563 2.77968 9.04062 2.34624 9.2C2.4264 9.05312 2.50656 8.89688 2.58375 8.7375L3.0439 7.76562L2.30765 7C1.90687 6.58125 1.42593 5.89687 1.42593 5C1.42593 3.10313 3.60203 1.5 6.17593 1.5C8.74984 1.5 10.9259 3.10313 10.9259 5C10.9259 6.89687 8.74984 8.5 6.17593 8.5C5.68609 8.5 5.19624 8.44063 4.72124 8.325L4.13343 8.18437ZM14.7942 10L14.0609 10.7625L14.5211 11.7344C14.5983 11.8938 14.6784 12.05 14.7586 12.1969C14.3252 12.0375 13.8977 11.8125 13.4791 11.5281L12.9714 11.1812L12.3806 11.325C11.9056 11.4406 11.4158 11.5 10.9259 11.5C9.32281 11.5 7.89187 10.8719 7.02796 9.94687C10.0353 9.60938 12.3509 7.52812 12.3509 5C12.3509 4.89375 12.3391 4.79063 12.3302 4.6875C14.242 5.14062 15.6759 6.4625 15.6759 8C15.6759 8.89688 15.195 9.58125 14.7942 10Z" fill="#3897F0"/>
</svg>
