<svg width="29" height="29" viewBox="0 0 29 29" fill="none" xmlns="http://www.w3.org/2000/svg">
<circle cx="14.5" cy="14.5" r="14.5" fill="#CCF6E0"/>
<path d="M6.0287 10.7123C6.88581 8.79521 8.36781 7.2255 10.2325 6.25969C12.0972 5.29387 14.2344 4.98907 16.2947 5.39508C18.3551 5.8011 20.2168 6.89392 21.5757 8.49497C22.9346 10.096 23.7103 12.1106 23.776 14.2096C23.8417 16.3085 23.1936 18.3677 21.9375 20.0506C20.6814 21.7336 18.8917 22.9407 16.8608 23.4748C14.8299 24.0089 12.6778 23.8384 10.7563 22.9911C8.83488 22.1438 7.25759 20.6699 6.28222 18.8102M5.54395 9.73117L5.99096 10.8775L7.13725 10.4304" stroke="#00D463" stroke-linecap="round" stroke-linejoin="round"/>
<path d="M15.0799 6.95996V15.08L10.4399 17.4" stroke="#00D463" stroke-linecap="round" stroke-linejoin="round"/>
</svg>
